<?xml version="1.0"?>
<svg xmlns="http://www.w3.org/2000/svg" xmlns:xlink="http://www.w3.org/1999/xlink" version="1.1" width="344px" height="344px" viewBox="0 0 344 344"><rect x="0" y="0" width="344" height="344" fill="#ffffff" fill-opacity="1"/><path fill="#000000" fill-opacity="1" d="M23,23L86,23L86,32L23,32ZM104,23L113,23L113,32L104,32ZM149,23L167,23L167,32L149,32ZM185,23L239,23L239,32L185,32ZM257,23L320,23L320,32L257,32ZM23,32L32,32L32,41L23,41ZM77,32L86,32L86,41L77,41ZM95,32L113,32L113,41L95,41ZM122,32L149,32L149,41L122,41ZM167,32L185,32L185,41L167,41ZM203,32L212,32L212,41L203,41ZM221,32L230,32L230,41L221,41ZM257,32L266,32L266,41L257,41ZM311,32L320,32L320,41L311,41ZM23,41L32,41L32,50L23,50ZM41,41L68,41L68,50L41,50ZM77,41L86,41L86,50L77,50ZM104,41L131,41L131,50L104,50ZM140,41L158,41L158,50L140,50ZM185,41L203,41L203,50L185,50ZM212,41L221,41L221,50L212,50ZM230,41L248,41L248,50L230,50ZM257,41L266,41L266,50L257,50ZM275,41L302,41L302,50L275,50ZM311,41L320,41L320,50L311,50ZM23,50L32,50L32,59L23,59ZM41,50L68,50L68,59L41,59ZM77,50L86,50L86,59L77,59ZM95,50L113,50L113,59L95,59ZM122,50L131,50L131,59L122,59ZM158,50L194,50L194,59L158,59ZM203,50L212,50L212,59L203,59ZM257,50L266,50L266,59L257,59ZM275,50L302,50L302,59L275,59ZM311,50L320,50L320,59L311,59ZM23,59L32,59L32,68L23,68ZM41,59L68,59L68,68L41,68ZM77,59L86,59L86,68L77,68ZM113,59L122,59L122,68L113,68ZM131,59L140,59L140,68L131,68ZM158,59L167,59L167,68L158,68ZM185,59L221,59L221,68L185,68ZM230,59L248,59L248,68L230,68ZM257,59L266,59L266,68L257,68ZM275,59L302,59L302,68L275,68ZM311,59L320,59L320,68L311,68ZM23,68L32,68L32,77L23,77ZM77,68L86,68L86,77L77,77ZM95,68L104,68L104,77L95,77ZM113,68L122,68L122,77L113,77ZM140,68L149,68L149,77L140,77ZM158,68L194,68L194,77L158,77ZM203,68L212,68L212,77L203,77ZM239,68L248,68L248,77L239,77ZM257,68L266,68L266,77L257,77ZM311,68L320,68L320,77L311,77ZM23,77L86,77L86,86L23,86ZM95,77L104,77L104,86L95,86ZM113,77L122,77L122,86L113,86ZM131,77L140,77L140,86L131,86ZM149,77L158,77L158,86L149,86ZM167,77L176,77L176,86L167,86ZM185,77L194,77L194,86L185,86ZM203,77L212,77L212,86L203,86ZM221,77L230,77L230,86L221,86ZM239,77L248,77L248,86L239,86ZM257,77L320,77L320,86L257,86ZM131,86L158,86L158,95L131,95ZM194,86L203,86L203,95L194,95ZM212,86L239,86L239,95L212,95ZM23,95L68,95L68,104L23,104ZM77,95L122,95L122,104L77,104ZM131,95L140,95L140,104L131,104ZM158,95L167,95L167,104L158,104ZM176,95L185,95L185,104L176,104ZM212,95L221,95L221,104L212,104ZM239,95L257,95L257,104L239,104ZM266,95L275,95L275,104L266,104ZM284,95L293,95L293,104L284,104ZM302,95L311,95L311,104L302,104ZM23,104L77,104L77,113L23,113ZM95,104L113,104L113,113L95,113ZM185,104L203,104L203,113L185,113ZM212,104L221,104L221,113L212,113ZM230,104L248,104L248,113L230,113ZM257,104L275,104L275,113L257,113ZM293,104L311,104L311,113L293,113ZM59,113L68,113L68,122L59,122ZM77,113L95,113L95,122L77,122ZM104,113L113,113L113,122L104,122ZM122,113L149,113L149,122L122,122ZM158,113L185,113L185,122L158,122ZM221,113L230,113L230,122L221,122ZM239,113L248,113L248,122L239,122ZM275,113L293,113L293,122L275,122ZM23,122L32,122L32,131L23,131ZM59,122L68,122L68,131L59,131ZM95,122L131,122L131,131L95,131ZM149,122L158,122L158,131L149,131ZM185,122L221,122L221,131L185,131ZM230,122L239,122L239,131L230,131ZM248,122L275,122L275,131L248,131ZM284,122L320,122L320,131L284,131ZM23,131L32,131L32,140L23,140ZM41,131L50,131L50,140L41,140ZM68,131L86,131L86,140L68,140ZM95,131L113,131L113,140L95,140ZM122,131L131,131L131,140L122,140ZM140,131L149,131L149,140L140,140ZM158,131L176,131L176,140L158,140ZM185,131L194,131L194,140L185,140ZM203,131L221,131L221,140L203,140ZM275,131L284,131L284,140L275,140ZM32,140L41,140L41,149L32,149ZM59,140L77,140L77,149L59,149ZM86,140L104,140L104,149L86,149ZM113,140L122,140L122,149L113,149ZM131,140L140,140L140,149L131,149ZM149,140L176,140L176,149L149,149ZM194,140L203,140L203,149L194,149ZM212,140L230,140L230,149L212,149ZM239,140L257,140L257,149L239,149ZM266,140L275,140L275,149L266,149ZM284,140L302,140L302,149L284,149ZM311,140L320,140L320,149L311,149ZM41,149L68,149L68,158L41,158ZM77,149L86,149L86,158L77,158ZM140,149L149,149L149,158L140,158ZM158,149L194,149L194,158L158,158ZM239,149L257,149L257,158L239,158ZM266,149L284,149L284,158L266,158ZM302,149L311,149L311,158L302,158ZM23,158L41,158L41,167L23,167ZM59,158L77,158L77,167L59,167ZM86,158L95,158L95,167L86,167ZM104,158L122,158L122,167L104,167ZM131,158L158,158L158,167L131,167ZM194,158L239,158L239,167L194,167ZM257,158L266,158L266,167L257,167ZM293,158L302,158L302,167L293,167ZM311,158L320,158L320,167L311,167ZM23,167L41,167L41,176L23,176ZM50,167L59,167L59,176L50,176ZM77,167L95,167L95,176L77,176ZM113,167L122,167L122,176L113,176ZM131,167L140,167L140,176L131,176ZM158,167L176,167L176,176L158,176ZM212,167L221,167L221,176L212,176ZM284,167L311,167L311,176L284,176ZM32,176L41,176L41,185L32,185ZM68,176L77,176L77,185L68,185ZM86,176L113,176L113,185L86,185ZM158,176L176,176L176,185L158,185ZM203,176L221,176L221,185L203,185ZM239,176L275,176L275,185L239,185ZM284,176L302,176L302,185L284,185ZM23,185L32,185L32,194L23,194ZM50,185L59,185L59,194L50,194ZM77,185L86,185L86,194L77,194ZM122,185L149,185L149,194L122,194ZM158,185L167,185L167,194L158,194ZM176,185L185,185L185,194L176,194ZM221,185L230,185L230,194L221,194ZM239,185L248,185L248,194L239,194ZM275,185L284,185L284,194L275,194ZM311,185L320,185L320,194L311,194ZM32,194L41,194L41,203L32,203ZM86,194L131,194L131,203L86,203ZM149,194L158,194L158,203L149,203ZM167,194L176,194L176,203L167,203ZM185,194L221,194L221,203L185,203ZM230,194L239,194L239,203L230,203ZM248,194L275,194L275,203L248,203ZM284,194L320,194L320,203L284,203ZM23,203L32,203L32,212L23,212ZM41,203L59,203L59,212L41,212ZM77,203L95,203L95,212L77,212ZM122,203L131,203L131,212L122,212ZM158,203L167,203L167,212L158,212ZM203,203L212,203L212,212L203,212ZM221,203L230,203L230,212L221,212ZM239,203L257,203L257,212L239,212ZM266,203L275,203L275,212L266,212ZM284,203L302,203L302,212L284,212ZM23,212L68,212L68,221L23,221ZM95,212L104,212L104,221L95,221ZM113,212L122,212L122,221L113,221ZM131,212L140,212L140,221L131,221ZM158,212L167,212L167,221L158,221ZM212,212L221,212L221,221L212,221ZM239,212L257,212L257,221L239,221ZM284,212L302,212L302,221L284,221ZM23,221L32,221L32,230L23,230ZM59,221L68,221L68,230L59,230ZM77,221L86,221L86,230L77,230ZM95,221L104,221L104,230L95,230ZM140,221L149,221L149,230L140,230ZM158,221L194,221L194,230L158,230ZM203,221L212,221L212,230L203,230ZM248,221L257,221L257,230L248,230ZM266,221L284,221L284,230L266,230ZM23,230L32,230L32,239L23,239ZM68,230L77,230L77,239L68,239ZM95,230L104,230L104,239L95,239ZM113,230L122,230L122,239L113,239ZM131,230L140,230L140,239L131,239ZM149,230L158,230L158,239L149,239ZM176,230L185,230L185,239L176,239ZM194,230L203,230L203,239L194,239ZM212,230L248,230L248,239L212,239ZM257,230L266,230L266,239L257,239ZM284,230L302,230L302,239L284,239ZM23,239L32,239L32,248L23,248ZM41,239L86,239L86,248L41,248ZM95,239L122,239L122,248L95,248ZM131,239L149,239L149,248L131,248ZM158,239L176,239L176,248L158,248ZM185,239L194,239L194,248L185,248ZM212,239L221,239L221,248L212,248ZM239,239L284,239L284,248L239,248ZM302,239L311,239L311,248L302,248ZM95,248L113,248L113,257L95,257ZM149,248L167,248L167,257L149,257ZM203,248L221,248L221,257L203,257ZM230,248L248,248L248,257L230,257ZM275,248L284,248L284,257L275,257ZM293,248L302,248L302,257L293,257ZM23,257L86,257L86,266L23,266ZM95,257L140,257L140,266L95,266ZM158,257L185,257L185,266L158,266ZM221,257L248,257L248,266L221,266ZM257,257L266,257L266,266L257,266ZM275,257L293,257L293,266L275,266ZM302,257L311,257L311,266L302,266ZM23,266L32,266L32,275L23,275ZM77,266L86,266L86,275L77,275ZM104,266L131,266L131,275L104,275ZM185,266L221,266L221,275L185,275ZM239,266L248,266L248,275L239,275ZM275,266L284,266L284,275L275,275ZM293,266L302,266L302,275L293,275ZM311,266L320,266L320,275L311,275ZM23,275L32,275L32,284L23,284ZM41,275L68,275L68,284L41,284ZM77,275L86,275L86,284L77,284ZM95,275L104,275L104,284L95,284ZM122,275L131,275L131,284L122,284ZM158,275L167,275L167,284L158,284ZM176,275L185,275L185,284L176,284ZM212,275L230,275L230,284L212,284ZM239,275L302,275L302,284L239,284ZM311,275L320,275L320,284L311,284ZM23,284L32,284L32,293L23,293ZM41,284L68,284L68,293L41,293ZM77,284L86,284L86,293L77,293ZM95,284L104,284L104,293L95,293ZM131,284L149,284L149,293L131,293ZM185,284L203,284L203,293L185,293ZM212,284L221,284L221,293L212,293ZM248,284L257,284L257,293L248,293ZM266,284L311,284L311,293L266,293ZM23,293L32,293L32,302L23,302ZM41,293L68,293L68,302L41,302ZM77,293L86,293L86,302L77,302ZM95,293L122,293L122,302L95,302ZM140,293L194,293L194,302L140,302ZM221,293L248,293L248,302L221,302ZM23,302L32,302L32,311L23,311ZM77,302L86,302L86,311L77,311ZM95,302L122,302L122,311L95,311ZM131,302L149,302L149,311L131,311ZM194,302L221,302L221,311L194,311ZM275,302L320,302L320,311L275,311ZM23,311L86,311L86,320L23,320ZM95,311L104,311L104,320L95,320ZM131,311L140,311L140,320L131,320ZM149,311L167,311L167,320L149,320ZM176,311L185,311L185,320L176,320ZM212,311L230,311L230,320L212,320ZM239,311L275,311L275,320L239,320ZM284,311L311,311L311,320L284,320Z"/></svg>
