<?xml version="1.0"?>
<svg xmlns="http://www.w3.org/2000/svg" xmlns:xlink="http://www.w3.org/1999/xlink" version="1.1" width="344px" height="344px" viewBox="0 0 344 344"><rect x="0" y="0" width="344" height="344" fill="#ffffff" fill-opacity="1"/><path fill="#000000" fill-opacity="1" d="M23,23L86,23L86,32L23,32ZM104,23L113,23L113,32L104,32ZM149,23L158,23L158,32L149,32ZM212,23L230,23L230,32L212,32ZM257,23L320,23L320,32L257,32ZM23,32L32,32L32,41L23,41ZM77,32L86,32L86,41L77,41ZM95,32L113,32L113,41L95,41ZM122,32L149,32L149,41L122,41ZM158,32L167,32L167,41L158,41ZM176,32L194,32L194,41L176,41ZM203,32L212,32L212,41L203,41ZM239,32L248,32L248,41L239,41ZM257,32L266,32L266,41L257,41ZM311,32L320,32L320,41L311,41ZM23,41L32,41L32,50L23,50ZM41,41L68,41L68,50L41,50ZM77,41L86,41L86,50L77,50ZM104,41L131,41L131,50L104,50ZM149,41L158,41L158,50L149,50ZM167,41L176,41L176,50L167,50ZM194,41L203,41L203,50L194,50ZM221,41L239,41L239,50L221,50ZM257,41L266,41L266,50L257,50ZM275,41L302,41L302,50L275,50ZM311,41L320,41L320,50L311,50ZM23,50L32,50L32,59L23,59ZM41,50L68,50L68,59L41,59ZM77,50L86,50L86,59L77,59ZM95,50L113,50L113,59L95,59ZM122,50L131,50L131,59L122,59ZM140,50L149,50L149,59L140,59ZM158,50L167,50L167,59L158,59ZM176,50L194,50L194,59L176,59ZM212,50L221,50L221,59L212,59ZM257,50L266,50L266,59L257,59ZM275,50L302,50L302,59L275,59ZM311,50L320,50L320,59L311,59ZM23,59L32,59L32,68L23,68ZM41,59L68,59L68,68L41,68ZM77,59L86,59L86,68L77,68ZM113,59L122,59L122,68L113,68ZM131,59L140,59L140,68L131,68ZM194,59L203,59L203,68L194,68ZM212,59L230,59L230,68L212,68ZM239,59L248,59L248,68L239,68ZM257,59L266,59L266,68L257,68ZM275,59L302,59L302,68L275,68ZM311,59L320,59L320,68L311,68ZM23,68L32,68L32,77L23,77ZM77,68L86,68L86,77L77,77ZM95,68L104,68L104,77L95,77ZM113,68L122,68L122,77L113,77ZM140,68L149,68L149,77L140,77ZM158,68L167,68L167,77L158,77ZM176,68L194,68L194,77L176,77ZM203,68L212,68L212,77L203,77ZM221,68L230,68L230,77L221,77ZM257,68L266,68L266,77L257,77ZM311,68L320,68L320,77L311,77ZM23,77L86,77L86,86L23,86ZM95,77L104,77L104,86L95,86ZM113,77L122,77L122,86L113,86ZM131,77L140,77L140,86L131,86ZM149,77L158,77L158,86L149,86ZM167,77L176,77L176,86L167,86ZM185,77L194,77L194,86L185,86ZM203,77L212,77L212,86L203,86ZM221,77L230,77L230,86L221,86ZM239,77L248,77L248,86L239,86ZM257,77L320,77L320,86L257,86ZM131,86L140,86L140,95L131,95ZM149,86L158,86L158,95L149,95ZM167,86L176,86L176,95L167,95ZM194,86L203,86L203,95L194,95ZM212,86L221,86L221,95L212,95ZM230,86L248,86L248,95L230,95ZM23,95L68,95L68,104L23,104ZM77,95L122,95L122,104L77,104ZM131,95L176,95L176,104L131,104ZM203,95L230,95L230,104L203,104ZM239,95L257,95L257,104L239,104ZM266,95L275,95L275,104L266,104ZM284,95L293,95L293,104L284,104ZM302,95L311,95L311,104L302,104ZM23,104L41,104L41,113L23,113ZM50,104L68,104L68,113L50,113ZM95,104L113,104L113,113L95,113ZM158,104L167,104L167,113L158,113ZM185,104L203,104L203,113L185,113ZM212,104L248,104L248,113L212,113ZM266,104L284,104L284,113L266,113ZM293,104L320,104L320,113L293,113ZM23,113L50,113L50,122L23,122ZM77,113L95,113L95,122L77,122ZM104,113L113,113L113,122L104,122ZM122,113L149,113L149,122L122,122ZM158,113L185,113L185,122L158,122ZM221,113L230,113L230,122L221,122ZM239,113L257,113L257,122L239,122ZM275,113L293,113L293,122L275,122ZM302,113L311,113L311,122L302,122ZM23,122L41,122L41,131L23,131ZM104,122L131,122L131,131L104,131ZM149,122L158,122L158,131L149,131ZM185,122L221,122L221,131L185,131ZM230,122L239,122L239,131L230,131ZM257,122L275,122L275,131L257,131ZM284,122L320,122L320,131L284,131ZM23,131L32,131L32,140L23,140ZM41,131L59,131L59,140L41,140ZM77,131L95,131L95,140L77,140ZM104,131L113,131L113,140L104,140ZM122,131L131,131L131,140L122,140ZM149,131L194,131L194,140L149,140ZM41,140L50,140L50,149L41,149ZM68,140L77,140L77,149L68,149ZM86,140L122,140L122,149L86,149ZM131,140L140,140L140,149L131,149ZM149,140L167,140L167,149L149,149ZM212,140L221,140L221,149L212,149ZM239,140L257,140L257,149L239,149ZM266,140L284,140L284,149L266,149ZM293,140L302,140L302,149L293,149ZM311,140L320,140L320,149L311,149ZM32,149L50,149L50,158L32,158ZM68,149L86,149L86,158L68,158ZM140,149L149,149L149,158L140,158ZM158,149L185,149L185,158L158,158ZM203,149L212,149L212,158L203,158ZM239,149L248,149L248,158L239,158ZM275,149L293,149L293,158L275,158ZM23,158L50,158L50,167L23,167ZM59,158L68,158L68,167L59,167ZM95,158L104,158L104,167L95,167ZM113,158L122,158L122,167L113,167ZM131,158L158,158L158,167L131,167ZM185,158L203,158L203,167L185,167ZM212,158L239,158L239,167L212,167ZM248,158L275,158L275,167L248,167ZM284,158L320,158L320,167L284,167ZM50,167L59,167L59,176L50,176ZM68,167L86,167L86,176L68,176ZM95,167L104,167L104,176L95,176ZM131,167L140,167L140,176L131,176ZM158,167L185,167L185,176L158,176ZM203,167L212,167L212,176L203,176ZM239,167L248,167L248,176L239,176ZM284,167L293,167L293,176L284,176ZM41,176L68,176L68,185L41,185ZM95,176L104,176L104,185L95,185ZM113,176L122,176L122,185L113,185ZM158,176L167,176L167,185L158,185ZM185,176L203,176L203,185L185,185ZM212,176L221,176L221,185L212,185ZM248,176L266,176L266,185L248,185ZM284,176L302,176L302,185L284,185ZM311,176L320,176L320,185L311,185ZM32,185L41,185L41,194L32,194ZM50,185L59,185L59,194L50,194ZM68,185L86,185L86,194L68,194ZM104,185L113,185L113,194L104,194ZM122,185L185,185L185,194L122,194ZM221,185L230,185L230,194L221,194ZM239,185L257,185L257,194L239,194ZM266,185L284,185L284,194L266,194ZM50,194L59,194L59,203L50,203ZM68,194L77,194L77,203L68,203ZM86,194L113,194L113,203L86,203ZM122,194L131,194L131,203L122,203ZM185,194L221,194L221,203L185,203ZM230,194L239,194L239,203L230,203ZM257,194L266,194L266,203L257,203ZM284,194L302,194L302,203L284,203ZM311,194L320,194L320,203L311,203ZM32,203L41,203L41,212L32,212ZM50,203L59,203L59,212L50,212ZM68,203L86,203L86,212L68,212ZM113,203L131,203L131,212L113,212ZM149,203L176,203L176,212L149,212ZM185,203L194,203L194,212L185,212ZM203,203L212,203L212,212L203,212ZM239,203L248,203L248,212L239,212ZM266,203L284,203L284,212L266,212ZM302,203L311,203L311,212L302,212ZM23,212L41,212L41,221L23,221ZM50,212L68,212L68,221L50,221ZM131,212L140,212L140,221L131,221ZM158,212L167,212L167,221L158,221ZM194,212L203,212L203,221L194,221ZM212,212L230,212L230,221L212,221ZM239,212L275,212L275,221L239,221ZM284,212L302,212L302,221L284,221ZM23,221L32,221L32,230L23,230ZM41,221L95,221L95,230L41,230ZM104,221L122,221L122,230L104,230ZM140,221L185,221L185,230L140,230ZM221,221L230,221L230,230L221,230ZM275,221L284,221L284,230L275,230ZM23,230L32,230L32,239L23,239ZM41,230L50,230L50,239L41,239ZM59,230L68,230L68,239L59,239ZM86,230L113,230L113,239L86,239ZM131,230L140,230L140,239L131,239ZM185,230L221,230L221,239L185,239ZM230,230L275,230L275,239L230,239ZM293,230L302,230L302,239L293,239ZM23,239L32,239L32,248L23,248ZM59,239L68,239L68,248L59,248ZM77,239L104,239L104,248L77,248ZM131,239L140,239L140,248L131,248ZM158,239L194,239L194,248L158,248ZM212,239L230,239L230,248L212,248ZM239,239L293,239L293,248L239,248ZM302,239L311,239L311,248L302,248ZM95,248L104,248L104,257L95,257ZM149,248L167,248L167,257L149,257ZM212,248L248,248L248,257L212,257ZM275,248L284,248L284,257L275,257ZM293,248L302,248L302,257L293,257ZM23,257L86,257L86,266L23,266ZM95,257L104,257L104,266L95,266ZM113,257L140,257L140,266L113,266ZM167,257L212,257L212,266L167,266ZM221,257L248,257L248,266L221,266ZM257,257L266,257L266,266L257,266ZM275,257L293,257L293,266L275,266ZM302,257L311,257L311,266L302,266ZM23,266L32,266L32,275L23,275ZM77,266L86,266L86,275L77,275ZM122,266L131,266L131,275L122,275ZM194,266L203,266L203,275L194,275ZM212,266L221,266L221,275L212,275ZM230,266L248,266L248,275L230,275ZM275,266L302,266L302,275L275,275ZM311,266L320,266L320,275L311,275ZM23,275L32,275L32,284L23,284ZM41,275L68,275L68,284L41,284ZM77,275L86,275L86,284L77,284ZM95,275L113,275L113,284L95,284ZM122,275L131,275L131,284L122,284ZM158,275L167,275L167,284L158,284ZM185,275L194,275L194,284L185,284ZM203,275L212,275L212,284L203,284ZM239,275L284,275L284,284L239,284ZM311,275L320,275L320,284L311,284ZM23,284L32,284L32,293L23,293ZM41,284L68,284L68,293L41,293ZM77,284L86,284L86,293L77,293ZM95,284L113,284L113,293L95,293ZM131,284L149,284L149,293L131,293ZM167,284L176,284L176,293L167,293ZM212,284L239,284L239,293L212,293ZM257,284L284,284L284,293L257,293ZM293,284L311,284L311,293L293,293ZM23,293L32,293L32,302L23,302ZM41,293L68,293L68,302L41,302ZM77,293L86,293L86,302L77,302ZM95,293L104,293L104,302L95,302ZM113,293L122,293L122,302L113,302ZM140,293L194,293L194,302L140,302ZM203,293L212,293L212,302L203,302ZM239,293L248,293L248,302L239,302ZM284,293L293,293L293,302L284,302ZM23,302L32,302L32,311L23,311ZM77,302L86,302L86,311L77,311ZM95,302L104,302L104,311L95,311ZM131,302L149,302L149,311L131,311ZM194,302L203,302L203,311L194,311ZM212,302L230,302L230,311L212,311ZM266,302L284,302L284,311L266,311ZM293,302L320,302L320,311L293,311ZM23,311L86,311L86,320L23,320ZM95,311L104,311L104,320L95,320ZM131,311L140,311L140,320L131,320ZM149,311L167,311L167,320L149,320ZM185,311L194,311L194,320L185,320ZM203,311L221,311L221,320L203,320ZM230,311L266,311L266,320L230,320ZM293,311L311,311L311,320L293,320Z"/></svg>
